<?xml version="1.0" encoding="utf-8" ?>
<svg baseProfile="full" height="200mm" version="1.1" viewBox="0,0,200,200" width="200mm" xmlns="http://www.w3.org/2000/svg" xmlns:ev="http://www.w3.org/2001/xml-events" xmlns:xlink="http://www.w3.org/1999/xlink"><defs /><rect fill="#1a1a1a" height="200" width="200" x="0" y="0" /><text alignment-baseline="middle" fill="#e1ed5e" style="dominant-baseline: central; font-size:9.0px; font-family:Arial;" text-anchor="middle" x="100.0" y="100.0">2024</text><line stroke="#e1ed5e" stroke-width="0.3" x1="100.0" x2="100.0" y1="15.0" y2="10.0" /><path d="M 100.0 14.0 a86.0,86.0 0 0,1 42.35913384403234,11.155469271406648" fill="none" id="id1" stroke="none" /><text fill="#e1ed5e" style="font-size:6.75px; font-family:Arial;" text-anchor="middle"><textPath startOffset="22.145653131862478" xlink:href="#id1">January</textPath></text><line stroke="#e1ed5e" stroke-width="0.3" x1="143.13028292997686" x2="145.6673583964461" y1="26.7553504044142" y2="22.446841604673864" /><path d="M 143.63769802327073 25.89364864446614 a86.0,86.0 0 0,1 29.32050498858742,28.57503671076993" fill="none" id="id2" stroke="none" /><text fill="#e1ed5e" style="font-size:6.75px; font-family:Arial;" text-anchor="middle"><textPath startOffset="20.669276256404974" xlink:href="#id2">February</textPath></text><line stroke="#e1ed5e" stroke-width="0.3" x1="172.87174338648825" x2="177.1583165268699" y1="56.24261187166439" y2="53.66864786411523" /><path d="M 173.72905801456457 55.72781907015455 a86.0,86.0 0 0,1 12.242430191666344,42.057860355516425" fill="none" id="id3" stroke="none" /><text fill="#e1ed5e" style="font-size:6.75px; font-family:Arial;" text-anchor="middle"><textPath startOffset="22.145653131862474" xlink:href="#id3">March</textPath></text><path d="M 120.98066250479742 99.09900007780936 l 0.9148754440111528 -0.03928868803259636 a21.915718668075478,21.915718668075478 0 0,0 0.012914946581259646,0.3760045782706078 l -0.9154150775892607 0.023577845197868617" fill="#ff0600" stroke="none" /><line stroke="#e1ed5e" stroke-width="0.3" x1="184.99686870605535" x2="189.99668451229388" y1="99.2704041080226" y2="99.22748670261217" /><path d="M 185.99683186730306 99.26182062694052 a86.0,86.0 0 0,1 -10.086455211305974,41.156179273409016" fill="none" id="id4" stroke="none" /><text fill="#e1ed5e" style="font-size:6.75px; font-family:Arial;" text-anchor="middle"><textPath startOffset="21.40746469413373" xlink:href="#id4">April</textPath></text><path d="M 120.98066250479742 100.90099992219065 l 2.386495200485139 0.10248637236568602 a23.388694789724983,23.388694789724983 0 0,0 -0.020669380951554094,0.4009804685906519 l -2.3843842300770124 -0.14343863433306855" fill="#ff1b02" stroke="none" /><path d="M 120.35273937422433 105.17358676015961 l 0.4998741815958568 0.12706606221888528 a21.51577124928978,21.51577124928978 0 0,0 -0.09406543472780723,0.3571817771884545 l -0.4976192660633193 -0.13562834378014302" fill="#ff0000" stroke="none" /><path d="M 120.26092885502905 105.52220625578681 l 6.941184771986325 1.8918507756825163 a28.19438290587215,28.19438290587215 0 0,0 -0.13128044169347008,0.4658679742277193 l -6.907685838218276 -2.010726673813244" fill="#ff5e08" stroke="none" /><path d="M 120.16314734710363 105.8691983318838 l 7.463764704284194 2.1725931273448027 a28.773541307403235,28.773541307403235 0 0,0 -0.14211893290149696,0.47306770595120706 l -7.425369451379067 -2.3003984368867334" fill="#ff6609" stroke="none" /><path d="M 120.05942366710727 106.21446072829308 l 13.799339250665685 4.275070573950428 a35.446383359416274,35.446383359416274 0 0,0 -0.18505591972752322,0.5796850328223807 l -13.723918615160906 -4.511324640464192" fill="#ffbe11" stroke="none" /><path d="M 119.94978838288452 106.5578916946017 l 41.84257123333113 13.754484263464988 a65.0452790293159,65.0452790293159 0 0,0 -0.357794189799015,1.0577549462796374 l -41.60029162195975 -14.470740884218786" fill="#36ff6b" stroke="none" /><path d="M 119.83427380445688 106.89939002012753 l 24.732059373096277 8.603094083414286 a47.18564470549536,47.18564470549536 0 0,0 -0.2726877056107537,0.7627560446735869 l -24.580731497441583 -9.026385084468794" fill="#b4ff20" stroke="none" /><path d="M 119.71291397450082 107.23885506374661 l 6.4904151764885 2.3833703544242915 a27.914184218658107,27.914184218658107 0 0,0 -0.16903941518878499,0.4483971318789051 l -6.448545077485274 -2.4944357664973555" fill="#ff5a08" stroke="none" /><path d="M 119.58574465831526 107.57618678355244 l 6.146803742386268 2.3777157359389056 a27.590654623658057,27.590654623658057 0 0,0 -0.17466372305814892,0.44026668089522325 l -6.105081344361995 -2.482883434047693" fill="#ff5607" stroke="none" /><path d="M 119.4528033332814 107.91128576633889 l 6.73809828280664 2.7403259120889167 a28.274019148533206,28.274019148533206 0 0,0 -0.18670836795152757,0.4480321142888883 l -6.690064070318627 -2.8555905358190827" fill="#ff5f08" stroke="none" /><path d="M 119.31412917781788 108.2440532568976 l 11.887976365907365 5.074270207835125 a33.9256411917744,33.9256411917744 0 0,0 -0.2332244342353235,0.5336631472770524 l -11.799118049655076 -5.277595424888022" fill="#ffaa0f" stroke="none" /><path d="M 119.16976305983485 108.57439118712176 l 8.183720437356417 3.660474058907938 a29.965062773497074,29.965062773497074 0 0,0 -0.21405832988657147,0.4677560821800388 l -8.11967764261479 -3.8004191233026656" fill="#ff760a" stroke="none" /><path d="M 119.0197475246899 108.90220220490707 l 32.641733321456385 15.27797937217862 a57.0402470569472,57.0402470569472 0 0,0 -0.4226974082453367,0.8832750105731907 l -32.37465665525114 -15.836066884816915" fill="#4cff2c" stroke="none" /><path d="M 118.8641267826498 109.22738970284198 l 8.36586631520453 4.092164433673685 a30.31308375115878,30.31308375115878 0 0,0 -0.2326602604681809,0.4654763738661471 l -8.294386141524615 -4.235172663703578" fill="#ff7b0b" stroke="none" /><path d="M 118.70294669586154 109.54985784667822 l 14.563292429606907 7.436120882124159 a37.35192282772301,37.35192282772301 0 0,0 -0.29648876874532487,0.5685563075786829 l -14.433495591886633 -7.685023432807345" fill="#ffd614" stroke="none" /><path d="M 118.5362547648365 109.86951160357373 l 21.42207622838449 11.406048988372676 a45.26939025727415,45.26939025727415 0 0,0 -0.3711112406127529,0.6828028835973081 l -21.2231196381564 -11.772106705444589" fill="#caff1d" stroke="none" /><line stroke="#e1ed5e" stroke-width="0.3" x1="174.33088141563837" x2="178.70328620479359" y1="141.23008692659167" y2="143.65538615756765" /><path d="M 175.20536237346943 141.71514677278685 a86.0,86.0 0 0,1 -30.301960400862466,31.631185727798858" fill="none" id="id5" stroke="none" /><text fill="#e1ed5e" style="font-size:6.75px; font-family:Arial;" text-anchor="middle"><textPath startOffset="22.145653131862474" xlink:href="#id5">May</textPath></text><path d="M 118.36410011445183 110.18625677009912 l 25.492256704179216 14.140125071181648 a50.15129995215359,50.15129995215359 0 0,0 -0.4240570272527345,0.7492681347960181 l -25.245766311905104 -14.57564997607679" fill="#93ff23" stroke="none" /><path d="M 117.21940702142032 112.02048342749411 l 8.754892114434643 6.111594635061951 a31.67706537016178,31.67706537016178 0 0,0 -0.31508860374791614,0.44321158079834605 l -8.648688412156767 -6.260983442569801" fill="#ff8d0d" stroke="none" /><path d="M 117.01052211995028 112.31430620078461 l 10.381929647316891 7.51571643307311 a33.8168036851706,33.8168036851706 0 0,0 -0.34444504820895955,0.46730586048235645 l -10.251382579524105 -7.692828602824344" fill="#ffa90f" stroke="none" /><path d="M 116.79662413953412 112.60449989151573 l 6.092859420318287 4.5721952973672115 a28.617604987988557,28.617604987988557 0 0,0 -0.2982336316417567,0.39039739724725125 l -6.013473811322226 -4.67611360785534" fill="#ff6409" stroke="none" /><path d="M 116.57777611688842 112.89097897827486 l 7.290659998625215 5.669261312093737 a30.23548845705286,30.23548845705286 0 0,0 -0.32212827399010946,0.40699855108603145 l -7.192265293993544 -5.793579807094451" fill="#ff7a0b" stroke="none" /><path d="M 116.35404254752997 113.17365903436017 l 12.343963532348623 9.943423238329377 a36.850712961393924,36.850712961393924 0 0,0 -0.40106417431671026,0.4892330805438286 l -12.171452538793286 -10.153858600571699" fill="#ffcf13" stroke="none" /><path d="M 116.1254893667686 113.45245675266167 l 19.710489722819496 16.443191554635355 a46.66869598588531,46.66869598588531 0 0,0 -0.5184790708352736,0.6107670417468722 l -19.425316088477107 -16.779125378831786" fill="#baff1f" stroke="none" /><path d="M 115.89218393027572 113.72728997021213 l 9.02231254284652 7.793258687472749 a32.922122486817315,32.922122486817315 0 0,0 -0.37310004299346566,0.42451935989632694 l -8.887201435894468 -7.946990325180368" fill="#ff9d0e" stroke="none" /><path d="M 115.6541949942343 113.99807769240083 l 7.41691431808279 6.63225051819289 a30.949741953329813,30.949741953329813 0 0,0 -0.3575465979156353,0.3930063440542556 l -7.301970019325275 -6.758594437804818" fill="#ff830c" stroke="none" /><path d="M 115.41159269507618 114.26474011684316 l 7.090287405423183 6.562664170614969 a30.661300973873864,30.661300973873864 0 0,0 -0.3608457936071265,0.38320572808596676 l -6.976585778079797 -6.683411358645433" fill="#ff7f0b" stroke="none" /><path d="M 114.91283532996324 114.78537596483092 l 7.777736487739808 7.711260506951498 a31.952475678073384,31.952475678073384 0 0,0 -0.3895281878779794,0.38619890713226285 l -7.644216379731863 -7.843639424312423" fill="#ff900d" stroke="none" /><path d="M 114.13192950727249 115.5334660781643 l 3.1135153351191702 3.422298760903763 a25.62667337845516,25.62667337845516 0 0,0 -0.32794206585548585,0.29324781747910383 l -3.0543082424403067 -3.4752421082662543" fill="#ff3b05" stroke="none" /><path d="M 113.86319453409587 115.77377054828091 l 10.597475373324903 12.057981623121368 a37.05308086043799,37.05308086043799 0 0,0 -0.4813733712730319,0.4157988530962609 l -10.388922522289015 -12.238124608682346" fill="#ffd213" stroke="none" /><path d="M 113.59037401385872 116.0094264158162 l 6.41952332197002 7.562182331618891 a30.919520215109497,30.919520215109497 0 0,0 -0.40758651290202064,0.3400231653795318 l -6.288762474906105 -7.671267680910294" fill="#ff830c" stroke="none" /><path d="M 113.03279911837588 116.46651593811092 l 13.201764582768545 16.679998282704826 a42.27225730405398,42.27225730405398 0 0,0 -0.5728697165025951,0.4454669565239234 l -12.91348492163072 -16.904166290849542" fill="#edff1a" stroke="none" /><path d="M 112.45986205192187 116.90419585922612 l 17.24962492600595 23.402429098516134 a50.072723432780776,50.072723432780776 0 0,0 -0.6962945764125897,0.5040635766161479 l -16.845349339219393 -23.695093446505357" fill="#94ff23" stroke="none" /><path d="M 112.16784306229584 117.11559508785304 l 6.012406449902655 8.457202626076064 a31.376574944428384,31.376574944428384 0 0,0 -0.44166997979654704,0.3083199477172339 l -5.866341378932349 -8.55916738959842" fill="#ff890c" stroke="none" /><path d="M 111.8722381534696 117.32195027204791 l 4.1313441448202095 6.02775457400828 a28.30765555068231,28.30765555068231 0 0,0 -0.4031868976419308,0.27128213839302656 l -4.027260959081275 -6.097786386458427" fill="#ff6008" stroke="none" /><path d="M 111.27062007382361 117.71928675628689 l 3.6051553447582307 5.667903002346488 a27.71731118110864,27.71731118110864 0 0,0 -0.40366419108004464,0.2519163101084363 l -3.507327024888471 -5.728955109296472" fill="#ff5708" stroke="none" /><path d="M 110.96478420261333 117.91015095944535 l 14.003855560990836 22.87424562827568 a47.82049745317531,47.82049745317531 0 0,0 -0.703797587043096,0.42261022927223185 l -13.609125217390302 -23.111269858083837" fill="#adff20" stroke="none" /><line stroke="#e1ed5e" stroke-width="0.3" x1="143.1302829299769" x2="145.66735839644613" y1="173.24464959558577" y2="177.55315839532614" /><path d="M 143.63769802327073 174.10635135553383 a86.0,86.0 0 0,1 -40.68552437913181,11.842963189579606" fill="none" id="id6" stroke="none" /><text fill="#e1ed5e" style="font-size:6.75px; font-family:Arial;" text-anchor="middle"><textPath startOffset="21.407464694133747" xlink:href="#id6">June</textPath></text><path d="M 110.34350942703117 118.27599006163325 l 22.00061702249257 38.872982220337306 a65.6669441094088,65.6669441094088 0 0,0 -0.9858040845961925,0.5468089080393816 l -21.33006874974028 -39.24492404380983" fill="#36ff72" stroke="none" /><path d="M 109.71004243097381 118.62028667847754 l 4.813649655578318 9.23080791806941 a31.410525338662893,31.410525338662893 0 0,0 -0.4802411732343055,0.24521456490727017 l -4.65448126063043 -9.312080434649515" fill="#ff890c" stroke="none" /><path d="M 109.06512990194946 118.94263497670748 l 12.570236732284096 26.266960161183295 a50.119822245591656,50.119822245591656 0 0,0 -0.7792708391399822,0.3647381004088724 l -12.117477179272608 -26.4788744931627" fill="#94ff23" stroke="none" /><path d="M 106.72888874123015 119.89276391827305 l 3.208012010822665 9.483917483619013 a31.01179463920814,31.01179463920814 0 0,0 -0.5057540251746037,0.16625139362627867 l -3.0447352480003276 -9.53758979864731" fill="#ff840c" stroke="none" /><path d="M 106.38641147887787 120.00534299687104 l 4.019207130387096 12.590109090965003 a34.21608387077481,34.21608387077481 0 0,0 -0.5610775708262589,0.17382326567753795 l -3.8024889266892132 -12.657248944449185" fill="#ffae10" stroke="none" /><path d="M 106.0420521117495 120.11202640906438 l 5.28500383882382 17.592058925101522 a39.368772490306114,39.368772490306114 0 0,0 -0.6489098296355189,0.18888819409370913 l -4.982233996806695 -17.680190813497752" fill="#ffef16" stroke="none" /><path d="M 105.69591212413111 120.21278271476187 l 2.6424770300409706 9.377218761975755 a30.7424286789406,30.7424286789406 0 0,0 -0.5091804035701986,0.13877938321773925 l -2.481115225536077 -9.421198639337636" fill="#ff800b" stroke="none" /><path d="M 105.3480935250658 120.30758222061773 l 2.6027215676017037 9.882957727594398 a31.21993214282154,31.21993214282154 0 0,0 -0.5194323350744822,0.1320376683515856 l -2.4326839393018242 -9.926180627781255" fill="#ff870c" stroke="none" /><path d="M 104.64783097203109 120.47920084513623 l 2.222056982995773 9.790793064107925 a31.039779183819938,31.039779183819938 0 0,0 -0.520636990875447,0.1134704089425336 l -2.0536575755011905 -9.827494931184178" fill="#ff840c" stroke="none" /><path d="M 104.29559338865022 120.5559693870025 l 2.497463160070714 11.95126531277947 a33.20942524496367,33.20942524496367 0 0,0 -0.5590308827424553,0.11182183312147526 l -2.2919357917973 -11.992376542563806" fill="#ffa10e" stroke="none" /><path d="M 103.58742460773223 120.69131181640829 l 0.14080286672726244 0.8121135183770876 a21.82422922419035,21.82422922419035 0 0,0 -0.3696842530271954,0.060831403154265974 l -0.12684111064699477 -0.8144109200270242" fill="#ff0400" stroke="none" /><path d="M 102.875027216393 120.80226474461374 l 1.7753535223685009 12.845573696490492 a33.96767688220811,33.96767688220811 0 0,0 -0.5782951344874953,0.07487188303134129 l -1.55458056599023 -12.874157175722228" fill="#ffab0f" stroke="none" /><path d="M 102.15924093988457 120.88869738790638 l 1.1182265791652688 10.81782778004653 a31.8754691191276,31.8754691191276 0 0,0 -0.5447676087696361,0.051590058943232174 l -0.9323594070106174 -10.835429594494945" fill="#ff8f0d" stroke="none" /><path d="M 101.08105385017728 120.97215588758144 l 1.3900730086592679 26.96704500700012 a48.002848356774756,48.002848356774756 0 0,0 -0.8233042569473841,0.035356227253506095 l -0.9269429911110542 -26.98693380267946" fill="#abff21" stroke="none" /><path d="M 100.72087961077811 120.9876233191556 l 1.002724597008297 29.193232573392763 a50.21044821124191,50.21044821124191 0 0,0 -0.8616750966605724,0.022193693917984272 l -0.5014361862769807 -29.20614398466079" fill="#93ff23" stroke="none" /><line stroke="#e1ed5e" stroke-width="0.3" x1="101.45913802915013" x2="101.54496967792366" y1="184.9874750549273" y2="189.98673829345242" /><path d="M 101.47630435890484 185.9873277026323 a86.0,86.0 0 0,1 -42.54439059252881,-10.42667462771756" fill="none" id="id7" stroke="none" /><text fill="#e1ed5e" style="font-size:6.75px; font-family:Arial;" text-anchor="middle"><textPath startOffset="22.145653131862474" xlink:href="#id7">July</textPath></text><path d="M 99.27912038922189 120.98762331915562 l -0.5666563315908028 16.4975808179752 a37.50730966098823,37.50730966098823 0 0,0 -0.6432936537645356,-0.02762579741488541 l 0.8497757459561771 -16.48542245213449" fill="#ffd814" stroke="none" /><path d="M 98.55909050195518 120.95050786540614 l -0.0576853577169537 0.8387324410087359 a21.840713808674156,21.840713808674156 0 0,0 -0.37382046281324444,-0.02893606802758484 l 0.07207481530543426 -0.8376186059860975" fill="#ff0500" stroke="none" /><path d="M 97.12497278360702 120.80226474461374 l -1.96547075469622 14.221167282820588 a35.35634612892615,35.35634612892615 0 0,0 -0.6005105248396606,-0.08825436743578677 l 2.2093063851435653 -14.185331842085917" fill="#ffbc11" stroke="none" /><path d="M 96.76829788921471 120.74984581791261 l -1.753016629776112 11.25562429244204 a32.39131886643873,32.39131886643873 0 0,0 -0.5486819441225713,-0.09028540510740049 l 1.945976076951747 -11.22387288883897" fill="#ff960d" stroke="none" /><path d="M 96.05791012581884 120.62667999033965 l -2.5502055305288684 13.34375295001096 a34.58526006519074,34.58526006519074 0 0,0 -0.5821909991367015,-0.11645450503721333 l 2.778893015196528 -13.298009048310886" fill="#ffb310" stroke="none" /><path d="M 95.70440661134978 120.55596938700252 l -2.821074576753869 13.499863090259936 a34.791474367281026,34.791474367281026 0 0,0 -0.5835649930184917,-0.1271852741216316 l 3.052401986391497 -13.449446358004586" fill="#ffb510" stroke="none" /><path d="M 93.95794788825049 120.11202640906438 l -2.0581889968590796 6.851041780851109 a28.153524685758715,28.153524685758715 0 0,0 -0.4616633306295576,-0.14302447994030854 l 2.175492960360271 -6.814700713104151" fill="#ff5d08" stroke="none" /><path d="M 93.61358852112213 120.00534299687104 l -10.912163353517405 34.182196284564945 a56.88172030282792,56.88172030282792 0 0,0 -0.9276521831999652,-0.30493769813144245 l 11.497338274365113 -33.98983766503148" fill="#4dff2c" stroke="none" /><path d="M 93.27111125876986 119.89276391827306 l -4.147788341446038 12.262199217796443 a33.94471621096281,33.94471621096281 0 0,0 -0.5503799971144102,-0.19145073304956248 l 4.35767411060547 -12.18919005217829" fill="#ffaa0f" stroke="none" /><path d="M 90.93487009805054 118.94263497670748 l -8.309342847688397 17.36333071478956 a40.24916704877343,40.24916704877343 0 0,0 -0.6206800106897199,-0.30360569590031883 l 8.606183107640186 -17.218131268792018" fill="#fff917" stroke="none" /><path d="M 89.97174638481275 118.45085714620012 l -7.507657901772748 13.813244934129335 a36.72166221429212,36.72166221429212 0 0,0 -0.5512722587440015,-0.30578142913628475 l 7.743674348672853 -13.682330589559902" fill="#ffce13" stroke="none" /><line stroke="#e1ed5e" stroke-width="0.3" x1="58.13341422392154" x2="55.67067388415222" y1="173.97424548756322" y2="178.32567169271397" /><path d="M 57.64086615596768 174.84453072859336 a86.0,86.0 0 0,1 -31.369924170532247,-30.572349798747897" fill="none" id="id8" stroke="none" /><text fill="#e1ed5e" style="font-size:6.75px; font-family:Arial;" text-anchor="middle"><textPath startOffset="22.145653131862474" xlink:href="#id8">August</textPath></text><path d="M 87.83215693770417 117.11559508785305 l -3.687681153061012 5.187185362743364 a27.364423326123145,27.364423326123145 0 0,0 -0.38052053578066136,-0.2754675229982538 l 3.776182699215627 -5.123117068372045" fill="#ff5307" stroke="none" /><path d="M 86.96720088162412 116.46651593811092 l -39.09839735512764 49.399547814332756 a84.0,84.0 0 0,0 -1.1229969185789526,-0.9046068248263577 l 39.94064504406185 -48.72109269571299" fill="#4dd2ff" stroke="none" /><path d="M 86.68645165197938 116.24036423190432 l -9.973814599959892 12.166432092381733 a36.732102451131865,36.732102451131865 0 0,0 -0.48420898660324535,-0.4039443581138015 l 10.181197920725031 -11.993425550356061" fill="#ffce13" stroke="none" /><path d="M 81.99639281039703 110.81064883170644 l -2.377889934949182 1.4278545836097971 a23.773649086432552,23.773649086432552 0 0,0 -0.20708692495513756,-0.35167887209996074 l 2.4020505700340897 -1.3868245432162776" fill="#ff2003" stroke="none" /><line stroke="#e1ed5e" stroke-width="0.3" x1="26.387840678322732" x2="22.057713659400548" y1="142.50000000000003" y2="145.00000000000006" /><path d="M 25.521815274538298 143.00000000000003 a86.0,86.0 0 0,1 -11.493303480769221,-40.785679425670985" fill="none" id="id9" stroke="none" /><text fill="#e1ed5e" style="font-size:6.75px; font-family:Arial;" text-anchor="middle"><textPath startOffset="21.40746469413373" xlink:href="#id9">September</textPath></text><path d="M 81.4637452351635 109.86951160357371 l -10.468874669836989 5.574086099977409 a32.860344544013714,32.860344544013714 0 0,0 -0.2608359183900065,-0.5001872660178303 l 10.563018657201944 -5.393552590855076" fill="#ff9c0e" stroke="none" /><path d="M 80.68587082218212 108.24405325689762 l -24.180504331858224 10.321219437603705 a47.29114604619173,47.29114604619173 0 0,0 -0.31228855899320757,-0.7493788569255758 l 24.354118735387917 -9.904608071236847" fill="#b3ff20" stroke="none" /><path d="M 79.94057633289273 106.21446072829308 l -8.264232210456539 2.5602802639634916 a29.651737921272716,29.651737921272716 0 0,0 -0.1464565416896348,-0.4875061948761161 l 8.306965072149804 -2.418036465496652" fill="#ff720a" stroke="none" /><path d="M 79.56144815229197 104.8234425847677 l -14.748393595108544 3.4805807306518726 a36.15353278476091,36.15353278476091 0 0,0 -0.13736472535917785,-0.60525432542532 l 14.805969182025388 -3.226892071287526" fill="#ffc712" stroke="none" /><path d="M 79.34024301695615 103.76489593502545 l -53.57999578868476 9.7640600762662 a75.46239820177232,75.46239820177232 0 0,0 -0.22130312217761128,-1.2764175997042888 l 53.73971372835461 -8.842849443641319" fill="#42ffdb" stroke="none" /><line stroke="#e1ed5e" stroke-width="0.3" x1="15.003131293944662" x2="10.003315487706104" y1="100.72959589197737" y2="100.7725132973878" /><path d="M 14.003168132696942 100.73817937305945 a86.0,86.0 0 0,1 10.791469493833604,-42.45332614584628" fill="none" id="id10" stroke="none" /><text fill="#e1ed5e" style="font-size:6.75px; font-family:Arial;" text-anchor="middle"><textPath startOffset="22.145653131862435" xlink:href="#id10">October</textPath></text><path d="M 79.407916724674 95.88100663000787 l -19.49997428447088 -3.900540985524984 a40.8862569900619,40.8862569900619 0 0,0 0.14357362791763803,-0.6870517838242758 l 19.430142945728875 4.234709220634669" fill="#fdff18" stroke="none" /><path d="M 80.05021161711548 93.44210830539832 l -9.944891257637098 -3.2690832870250963 a31.468417629409593,31.468417629409593 0 0,0 0.17309814267838128,-0.5117339013043404 l 9.88730769338635 3.4393188628035984" fill="#ff8a0c" stroke="none" /><path d="M 80.16572619554312 93.10060997987247 l -8.934119896837027 -3.10775066748394 a30.459207817904527,30.459207817904527 0 0,0 0.17602496577986135,-0.4923731576432161 l 8.879454761013223 3.260658781508077" fill="#ff7d0b" stroke="none" /><path d="M 80.41425534168474 92.42381321644754 l -5.349749777756187 -2.0693981397506636 a26.736046665204693,26.736046665204693 0 0,0 0.16925359380188834,-0.42662962101144164 l 5.313437508988167 2.160928777975688" fill="#ff4a06" stroke="none" /><path d="M 80.68587082218212 91.75594674310238 l -4.649762385116667 -1.9847070702439988 a26.05562581613022,26.05562581613022 0 0,0 0.17912140717585462,-0.40986483346642605 l 4.615007095923835 2.064233973486292" fill="#ff4106" stroke="none" /><line stroke="#e1ed5e" stroke-width="0.3" x1="26.387840678322718" x2="22.05771365940052" y1="57.49999999999999" y2="54.99999999999999" /><path d="M 25.521815274538284 56.99999999999999 a86.0,86.0 0 0,1 29.574782752854787,-30.34633250058573" fill="none" id="id11" stroke="none" /><text fill="#e1ed5e" style="font-size:6.75px; font-family:Arial;" text-anchor="middle"><textPath startOffset="21.40746469413373" xlink:href="#id11">November</textPath></text><path d="M 83.42222388311158 87.10902102172516 l -22.592571906748876 -17.56812056463744 a49.619279612444046,49.619279612444046 0 0,0 0.5286427874612617,-0.6679228925599388 l 22.28766268864605 17.95336340111206" fill="#99ff23" stroke="none" /><path d="M 89.03521579738668 82.08984904055464 l -6.359999183113025 -10.388580693120685 a33.18081271618106,33.18081271618106 0 0,0 0.48833820577971965,-0.29323306147441924 l 6.180728220775872 10.496227755131027" fill="#ffa00e" stroke="none" /><line stroke="#e1ed5e" stroke-width="0.3" x1="56.869717070023135" x2="54.33264160355391" y1="26.7553504044142" y2="22.446841604673864" /><path d="M 56.362301976729285 25.89364864446614 a86.0,86.0 0 0,1 42.16139366436587,-11.88097634709845" fill="none" id="id12" stroke="none" /><text fill="#e1ed5e" style="font-size:6.75px; font-family:Arial;" text-anchor="middle"><textPath startOffset="22.145653131862474" xlink:href="#id12">December</textPath></text></svg>